<?xml version="1.0" encoding="utf-8"?>
<!-- Generator: Adobe Illustrator 25.4.1, SVG Export Plug-In . SVG Version: 6.00 Build 0)  -->
<svg version="1.1" id="レイヤー_1" xmlns="http://www.w3.org/2000/svg" xmlns:xlink="http://www.w3.org/1999/xlink" x="0px"
	 y="0px" viewBox="0 0 330 42" style="enable-background:new 0 0 330 42;" xml:space="preserve">
<style type="text/css">
	.st0{fill:none;}
	.st1{fill:url(#SVGID_1_);stroke:#25770B;stroke-miterlimit:10;}
	.st2{fill:url(#SVGID_00000119111162774156046580000004790554772969030842_);stroke:#25770B;stroke-miterlimit:10;}
	.st3{fill:url(#SVGID_00000010293167026583050930000005532828987257011349_);stroke:#25770B;stroke-miterlimit:10;}
	.st4{fill:url(#SVGID_00000104707582640390101800000006980077415852118182_);stroke:#25770B;stroke-miterlimit:10;}
	.st5{fill:url(#SVGID_00000176013971326210706410000012156553752464540814_);stroke:#25770B;stroke-miterlimit:10;}
	.st6{fill:url(#SVGID_00000043428142625722812160000018278683596963845032_);stroke:#25770B;stroke-miterlimit:10;}
	.st7{fill:url(#SVGID_00000121279661600985669710000001920031495080897439_);stroke:#25770B;stroke-miterlimit:10;}
	.st8{fill:url(#SVGID_00000118378567289788777850000006762703659088359855_);stroke:#25770B;stroke-miterlimit:10;}
	.st9{fill:url(#SVGID_00000090290616203069135670000002775762581648385970_);stroke:#25770B;stroke-miterlimit:10;}
	.st10{fill:url(#SVGID_00000023239603588047432070000010752483333495859110_);stroke:#25770B;stroke-miterlimit:10;}
	.st11{fill:url(#SVGID_00000096042258661367382890000017938565597121850021_);stroke:#25770B;stroke-miterlimit:10;}
	.st12{fill:url(#SVGID_00000116931732807649613300000018439445592044334760_);stroke:#25770B;stroke-miterlimit:10;}
	.st13{fill:url(#SVGID_00000115484488307859048900000011869009281629936537_);stroke:#25770B;stroke-miterlimit:10;}
	.st14{fill:url(#SVGID_00000095296177981482145240000012073109283576211606_);stroke:#25770B;stroke-miterlimit:10;}
	.st15{fill:url(#SVGID_00000112611117529875147650000017715375059490931623_);stroke:#25770B;stroke-miterlimit:10;}
	.st16{fill:url(#SVGID_00000013156598680780999940000012550030739079998143_);stroke:#25770B;stroke-miterlimit:10;}
	.st17{opacity:0.42;}
	.st18{fill:#39960E;}
	.st19{fill:url(#SVGID_00000142172276048038600530000014903549830315308696_);}
	.st20{fill:url(#SVGID_00000034768103490199177970000006987431348655742873_);}
	.st21{font-family:'KozGoPr6N-Regular-83pv-RKSJ-H';}
	.st22{font-size:14px;}
</style>
<pattern  y="42" width="330" height="42" patternUnits="userSpaceOnUse" id="SVGID_0000000380412339115672753" viewBox="0 -42 330 42" style="overflow:visible;">
	<g>
		<rect y="-42" class="st0" width="330" height="42"/>
		<g>
			<rect y="-42" class="st0" width="330" height="42"/>
		</g>
	</g>
</pattern>
<pattern  y="42" width="330" height="42" patternUnits="userSpaceOnUse" id="SVGID_0000002327403027504490536" viewBox="0 -42 330 42" style="overflow:visible;">
	<g>
		<rect y="-42" class="st0" width="330" height="42"/>
		<g>
			<rect y="-42" class="st0" width="330" height="42"/>
		</g>
	</g>
</pattern>
<pattern  y="42" width="330" height="42" patternUnits="userSpaceOnUse" id="SVGID_0000006144077954692709190" viewBox="0 -42 330 42" style="overflow:visible;">
	<g>
		<rect y="-42" class="st0" width="330" height="42"/>
		<g>
			<rect y="-42" class="st0" width="330" height="42"/>
		</g>
	</g>
</pattern>
<pattern  y="42" width="330" height="42" patternUnits="userSpaceOnUse" id="SVGID_0000006289524052095816963" viewBox="0 -42 330 42" style="overflow:visible;">
	<g>
		<rect y="-42" class="st0" width="330" height="42"/>
		<g>
			<rect y="-42" class="st0" width="330" height="42"/>
		</g>
	</g>
</pattern>
<pattern  y="42" width="330" height="42" patternUnits="userSpaceOnUse" id="SVGID_0000007083421294103489688" viewBox="0 -42 330 42" style="overflow:visible;">
	<g>
		<rect y="-42" class="st0" width="330" height="42"/>
		<g>
			<rect y="-42" class="st0" width="330" height="42"/>
		</g>
	</g>
</pattern>
<pattern  y="42" width="330" height="42" patternUnits="userSpaceOnUse" id="SVGID_0000008885101534594603463" viewBox="0 -42 330 42" style="overflow:visible;">
	<g>
		<rect y="-42" class="st0" width="330" height="42"/>
		<g>
			<rect y="-42" class="st0" width="330" height="42"/>
		</g>
	</g>
</pattern>
<pattern  y="42" width="330" height="42" patternUnits="userSpaceOnUse" id="SVGID_0000010685835469334815287" viewBox="0 -42 330 42" style="overflow:visible;">
	<g>
		<rect y="-42" class="st0" width="330" height="42"/>
		<g>
			<rect y="-42" class="st0" width="330" height="42"/>
		</g>
	</g>
</pattern>
<pattern  y="42" width="330" height="42" patternUnits="userSpaceOnUse" id="SVGID_0000011405599590577330517" viewBox="0 -42 330 42" style="overflow:visible;">
	<g>
		<rect y="-42" class="st0" width="330" height="42"/>
		<g>
			<rect y="-42" class="st0" width="330" height="42"/>
		</g>
	</g>
</pattern>
<pattern  y="42" width="330" height="42" patternUnits="userSpaceOnUse" id="SVGID_0000012054928352831475324" viewBox="0 -42 330 42" style="overflow:visible;">
	<g>
		<rect y="-42" class="st0" width="330" height="42"/>
		<g>
			<rect y="-42" class="st0" width="330" height="42"/>
		</g>
	</g>
</pattern>
<pattern  y="42" width="330" height="42" patternUnits="userSpaceOnUse" id="SVGID_0000013205091541776019036" viewBox="0 -42 330 42" style="overflow:visible;">
	<g>
		<rect y="-42" class="st0" width="330" height="42"/>
		<g>
			<rect y="-42" class="st0" width="330" height="42"/>
		</g>
	</g>
</pattern>
<pattern  y="42" width="330" height="42" patternUnits="userSpaceOnUse" id="SVGID_0000015658707928986386630" viewBox="0 -42 330 42" style="overflow:visible;">
	<g>
		<rect y="-42" class="st0" width="330" height="42"/>
		<g>
			<rect y="-42" class="st0" width="330" height="42"/>
		</g>
	</g>
</pattern>
<pattern  y="42" width="330" height="42" patternUnits="userSpaceOnUse" id="SVGID_0000016087482962634569808" viewBox="0 -42 330 42" style="overflow:visible;">
	<g>
		<rect y="-42" class="st0" width="330" height="42"/>
		<g>
			<rect y="-42" class="st0" width="330" height="42"/>
		</g>
	</g>
</pattern>
<pattern  y="42" width="330" height="42" patternUnits="userSpaceOnUse" id="SVGID_0000016594161115162202824" viewBox="0 -42 330 42" style="overflow:visible;">
	<g>
		<rect y="-42" class="st0" width="330" height="42"/>
		<g>
			<rect y="-42" class="st0" width="330" height="42"/>
		</g>
	</g>
</pattern>
<pattern  y="42" width="330" height="42" patternUnits="userSpaceOnUse" id="SVGID_0000017315538156322519454" viewBox="0 -42 330 42" style="overflow:visible;">
	<g>
		<rect y="-42" class="st0" width="330" height="42"/>
		<g>
			<rect y="-42" class="st0" width="330" height="42"/>
		</g>
	</g>
</pattern>
<pattern  y="42" width="330" height="42" patternUnits="userSpaceOnUse" id="SVGID_0000017816774577822323825" viewBox="0 -42 330 42" style="overflow:visible;">
	<g>
		<rect y="-42" class="st0" width="330" height="42"/>
		<g>
			<rect y="-42" class="st0" width="330" height="42"/>
		</g>
	</g>
</pattern>
<pattern  y="42" width="330" height="42" patternUnits="userSpaceOnUse" id="SVGID_0000017961307496343787988" viewBox="0 -42 330 42" style="overflow:visible;">
	<g>
		<rect y="-42" class="st0" width="330" height="42"/>
		<g>
			<rect y="-42" class="st0" width="330" height="42"/>
		</g>
	</g>
</pattern>
<g>
	<pattern  id="SVGID_1_" xlink:href="#SVGID_0000006289524052095816963" patternTransform="matrix(1 0 0 -1 598.6 -32672.375)">
	</pattern>
	<path class="st1" d="M18.7,29.6h-5.4l-0.1-2.3H17v-7.6h-5.5L11,29.5H5.3l-1.5-13h4.7l-0.1-1.6H3.5L3.1,11h5L7.9,8.8H12V11h4.3
		l-0.2,3.9h-4.3l-0.1,1.6h8.4L18.7,29.6z M8.8,19.8h-2l0.3,7.6h2.2L8.8,19.8z M20.2,14.9h-3.3l0.2-4h3.5L20.2,14.9z"/>
	
		<pattern  id="SVGID_00000165916334203943999840000008668417707272383140_" xlink:href="#SVGID_0000016594161115162202824" patternTransform="matrix(1 0 0 -1 619.9 -32672.4746)">
	</pattern>
	<path style="fill:url(#SVGID_00000165916334203943999840000008668417707272383140_);stroke:#25770B;stroke-miterlimit:10;" d="
		M40.4,14.6H37l-0.1,1.8h3.4L40,19.7h-3.3l-0.3,3.5h-2.5l-0.2-3.5h-8.2l-0.3-3.3h8.2l-0.1-1.8h-8.4l-0.5-4.1H33l-0.1-1.8h4.6
		l-0.1,1.7H41L40.4,14.6z M39.2,29.6H26.7L26,23.1h2.6l0.2,4.3h10.5L39.2,29.6z"/>
	
		<pattern  id="SVGID_00000000938043591559591080000003337978897836140937_" xlink:href="#SVGID_0000012054928352831475324" patternTransform="matrix(1 0 0 -1 639.9 -32672.2734)">
	</pattern>
	<path style="fill:url(#SVGID_00000000938043591559591080000003337978897836140937_);stroke:#25770B;stroke-miterlimit:10;" d="
		M54.6,15.2h-5.4l-0.5,9.4h-1.8L46,15.2h-1.1l-0.5-4h1.2l-0.2-2.3h4.2l-0.1,2.3h5.3L54.6,15.2z M61.7,15.2h-1.9L59,21.6h2.1
		l-0.4,2.8h-2.1L58,29.5h-7.8L50,21.6h6.5v-6.8l-0.1-3.6h5.8L61.7,15.2z M56.5,24.4h-4.1v3.2h4.2L56.5,24.4z"/>
	
		<pattern  id="SVGID_00000016767251349582922970000011706519971901689745_" xlink:href="#SVGID_0000008885101534594603463" patternTransform="matrix(1 0 0 -1 660.1 -32672.5742)">
	</pattern>
	<path style="fill:url(#SVGID_00000016767251349582922970000011706519971901689745_);stroke:#25770B;stroke-miterlimit:10;" d="
		M80.7,29.5h-5.8v-2.4h3.8l0.2-12.7H77l-6.6,8l0.1,7.3h-1.9L68,25.3L66.6,27l-0.4-3.1l1.3-2L67,17.8h-1.7l-0.7-4.4h1.9L66,8.6h4.3
		l0.1,9.3l5.1-7.6h7.3L80.7,29.5z"/>
	
		<pattern  id="SVGID_00000110459103675762692560000003355657129345576377_" xlink:href="#SVGID_0000007083421294103489688" patternTransform="matrix(1 0 0 -1 681.4 -32668.5742)">
	</pattern>
	<path style="fill:url(#SVGID_00000110459103675762692560000003355657129345576377_);stroke:#25770B;stroke-miterlimit:10;" d="
		M99.9,19h-5.3l-0.1,3.7h4.9l-0.3,2.4h-4.7l-0.1,4.3H93l-0.6-4.3h-5.1l-0.4-2.4h5.2L91.6,19h-5.2l-0.5-3.3h5.2l-0.4-3.1h4l-0.1,3.1
		h5.6L99.9,19z"/>
	
		<pattern  id="SVGID_00000023276349298780820150000003121872980979851168_" xlink:href="#SVGID_0000016087482962634569808" patternTransform="matrix(1 0 0 -1 701.2 -32662.4746)">
	</pattern>
	<path style="fill:url(#SVGID_00000023276349298780820150000003121872980979851168_);stroke:#25770B;stroke-miterlimit:10;" d="
		M114.1,25h-1.4v-2.7h-3.1l0.6,7.1h-1.1l-1.5-7.1H106l-0.3-2.2h1.4l-0.3-1.4h2.5l0.1,1.4h5.6L114.1,25z"/>
	
		<pattern  id="SVGID_00000176004587435432114430000011895314373384443009_" xlink:href="#SVGID_0000000380412339115672753" patternTransform="matrix(1 0 0 -1 715.9 -32666.6738)">
	</pattern>
	<path style="fill:url(#SVGID_00000176004587435432114430000011895314373384443009_);stroke:#25770B;stroke-miterlimit:10;" d="
		M120.8,18.6l-0.4-3.6h6.9v3.6H120.8z M131.9,29.1h-10l-0.2-2h8.8l0.5-12.6h3.2L131.9,29.1z"/>
	
		<pattern  id="SVGID_00000013914724554119474130000005013793121594359963_" xlink:href="#SVGID_0000002327403027504490536" patternTransform="matrix(1 0 0 -1 734.2 -32667.875)">
	</pattern>
	<path style="fill:url(#SVGID_00000013914724554119474130000005013793121594359963_);stroke:#25770B;stroke-miterlimit:10;" d="
		M140.4,28.8h-1.7l0.5-14.3h3.7L140.4,28.8z M148.7,28.8l-2.9-14.5h2.1v2.5h1.9l0.6,11.9h-1.7L148.7,28.8L148.7,28.8z M150.9,16.6
		h-2.7l-0.1-3.3h3.1L150.9,16.6z M148.9,14l-0.1,1.9h1.5l0.2-1.9H148.9z"/>
	
		<pattern  id="SVGID_00000012434131477018788880000014288078300571061179_" xlink:href="#SVGID_0000017816774577822323825" patternTransform="matrix(1 0 0 -1 750 -32667.375)">
	</pattern>
	<path style="fill:url(#SVGID_00000012434131477018788880000014288078300571061179_);stroke:#25770B;stroke-miterlimit:10;" d="
		M167.3,17.2l-4.4,5.3l4.1,6.4h-1.8l-4-4.3l-3.5,4.3h-2.1l7.7-11.7h-8.5l-0.3-3.4h13.3L167.3,17.2z"/>
	
		<pattern  id="SVGID_00000147186842761165410540000016449527858093645983_" xlink:href="#SVGID_0000017315538156322519454" patternTransform="matrix(1 0 0 -1 771.1 -32670.375)">
	</pattern>
	<path style="fill:url(#SVGID_00000147186842761165410540000016449527858093645983_);stroke:#25770B;stroke-miterlimit:10;" d="
		M193,14.6h-16.9l-0.5-3.8h17.8L193,14.6z M192.4,20.7l-2.8,9.5h-10.5l-0.2-2.1h9l1.1-7.4h-12.3l-0.4-3.2h16.5L192.4,20.7z"/>
	
		<pattern  id="SVGID_00000013880360503583831870000007330509599817858221_" xlink:href="#SVGID_0000015658707928986386630" patternTransform="matrix(1 0 0 -1 793.6 -32669.5742)">
	</pattern>
	<path style="fill:url(#SVGID_00000013880360503583831870000007330509599817858221_);stroke:#25770B;stroke-miterlimit:10;" d="
		M215,15.2l-10,3.7h9.6l-1.5,11.3h-13.2l-0.9-6.8h9.4l-0.2,4.8h3.1v-6.5L199,21.6l-0.4-2.6l9.4-3.9h-9.5l-0.4-3.5h17.5L215,15.2z
		 M206.1,25.7H202l0.1,2.5h4.1L206.1,25.7z"/>
	
		<pattern  id="SVGID_00000173124358607213725800000010438052761540329894_" xlink:href="#SVGID_0000006144077954692709190" patternTransform="matrix(1 0 0 -1 815.5 -32670.2734)">
	</pattern>
	<path style="fill:url(#SVGID_00000173124358607213725800000010438052761540329894_);stroke:#25770B;stroke-miterlimit:10;" d="
		M237.6,15.8h-3.1l-0.2,1.7h3.2l-0.4,3.1H234l-0.2,1.9h3.1l-0.3,2.7h-3L233,30h-10.9l-0.9-7.5h9.7l-0.1-1.9H221l-0.4-3.1h9.9
		l-0.1-1.7h-10l-0.4-3.6h10.3l-0.1-1.3h7l-0.2,1.3h1L237.6,15.8z M231,25.2h-7l0.1,2.8h7L231,25.2z"/>
	
		<pattern  id="SVGID_00000082331128564998779830000018185493611783342988_" xlink:href="#SVGID_0000017961307496343787988" patternTransform="matrix(1 0 0 -1 834.8 -32674.7734)">
	</pattern>
	<path style="fill:url(#SVGID_00000082331128564998779830000018185493611783342988_);stroke:#25770B;stroke-miterlimit:10;" d="
		M256.3,30.3c-0.2-1.4-0.4-2.1-0.7-3.1l-0.7-2.4h-7.8l-0.7,2.4c-0.4,1.1-0.5,2-0.7,3.1h-6.4c0.4-0.9,0.7-1.6,1.3-3.5l5.9-17.3
		c0.5-1.4,0.7-2.3,0.9-3.1h7.2c0.2,0.8,0.4,1.6,0.9,3.1l6,17.3c0.5,1.5,1,2.7,1.3,3.5H256.3z M250.9,11.3l-2.6,8.6h5.2L250.9,11.3z"
		/>
	
		<pattern  id="SVGID_00000023246928185778402160000006573156846662740395_" xlink:href="#SVGID_0000013205091541776019036" patternTransform="matrix(1 0 0 -1 860 -32669.875)">
	</pattern>
	<path style="fill:url(#SVGID_00000023246928185778402160000006573156846662740395_);stroke:#25770B;stroke-miterlimit:10;" d="
		M281.2,22.9h-6.5l-0.6,6.8h-2l-0.6-6.8h-6.6l-0.4-3.1h6.8l-0.3-3.2l-5.9,0.5l-0.4-3.8l16.9-2l-0.4,4.4l-5.8,0.5l-0.3,3.5h6.7
		L281.2,22.9z"/>
	
		<pattern  id="SVGID_00000135683385384290657420000004550340554400635273_" xlink:href="#SVGID_0000011405599590577330517" patternTransform="matrix(1 0 0 -1 882.3 -32662.875)">
	</pattern>
	<path style="fill:url(#SVGID_00000135683385384290657420000004550340554400635273_);stroke:#25770B;stroke-miterlimit:10;" d="
		M303.3,21.6h-16l-0.5-3.3h16.9L303.3,21.6z"/>
	
		<pattern  id="SVGID_00000000211270459091639120000007427226112568507071_" xlink:href="#SVGID_0000010685835469334815287" patternTransform="matrix(1 0 0 -1 905 -32669.2734)">
	</pattern>
	<path style="fill:url(#SVGID_00000000211270459091639120000007427226112568507071_);stroke:#25770B;stroke-miterlimit:10;" d="
		M325.4,29.4h-15.5l-0.4-2.5l3.7-15h5L312.4,27H323l-2.4-7h3.6l1.5,7.1L325.4,29.4z"/>
</g>
<g class="st17">
	<path class="st18" d="M18.9,29.5h-5.4l-0.1-2.3h3.8v-7.6h-5.5l-0.5,9.8H5.5L4,16.4h4.7l-0.1-1.6H3.7l-0.4-3.9h5L8.1,8.7h4.1
		l-0.1,2.2h4.3l-0.2,3.9h-4.3l-0.1,1.6h8.4L18.9,29.5z M8.9,19.7h-2l0.3,7.6h2.2L8.9,19.7z M20.4,14.8h-3.3l0.2-4h3.5L20.4,14.8z"/>
	<path class="st18" d="M40.6,14.5h-3.4L37,16.3h3.4l-0.3,3.3h-3.3l-0.3,3.5H34l-0.2-3.5h-8.2l-0.3-3.3h8.2l-0.1-1.8H25l-0.5-4.1H33
		V8.6h4.6l-0.1,1.7h3.6L40.6,14.5z M39.3,29.5H26.9L26.2,23h2.6l0.2,4.3h10.5L39.3,29.5z"/>
	
		<linearGradient id="SVGID_00000029724913999067171850000006234713956256417436_" gradientUnits="userSpaceOnUse" x1="44.6" y1="1253.1" x2="62.3" y2="1253.1" gradientTransform="matrix(1 0 0 1 0 -1234)">
		<stop  offset="0" style="stop-color:#FFFFFF"/>
		<stop  offset="1" style="stop-color:#000000"/>
	</linearGradient>
	<path style="fill:url(#SVGID_00000029724913999067171850000006234713956256417436_);" d="M54.8,15.1h-5.4l-0.5,9.4h-1.8l-0.9-9.4
		h-1.1l-0.5-4h1.2l-0.2-2.3h4.2l-0.1,2.3H55L54.8,15.1z M61.8,15.1h-1.9l-0.7,6.4h2.1L61,24.3h-2.1l-0.6,5.1h-7.8l-0.4-7.9h6.5v-6.8
		l-0.1-3.6h5.8L61.8,15.1z M56.6,24.3h-4.1v3.2h4.2L56.6,24.3z"/>
	<path class="st18" d="M80.8,29.4H75V27h3.8L79,14.3h-1.9l-6.6,8l0.1,7.3h-1.9l-0.5-4.4l-1.4,1.7l-0.4-3.1l1.3-2l-0.5-4.1h-1.7
		l-0.7-4.4h1.9l-0.6-4.8h4.3l0.1,9.3l5.1-7.6h7.3L80.8,29.4z"/>
	<path class="st18" d="M100.1,18.9h-5.3l-0.1,3.7h4.9L99.3,25h-4.7l-0.1,4.3h-1.4L92.5,25h-5.1L87,22.6h5.2l-0.5-3.7h-5.2L86,15.6
		h5.2l-0.4-3.1h4l-0.1,3.1h5.6L100.1,18.9z"/>
	<path class="st18" d="M114.2,24.9h-1.4v-2.7h-3.1l0.6,7.1h-1.1l-1.5-7.1h-1.6l-0.3-2.2h1.4l-0.3-1.4h2.5l0.1,1.4h5.6L114.2,24.9z"
		/>
	<path class="st18" d="M120.9,18.6l-0.4-3.6h6.9v3.6H120.9z M132.1,29h-10l-0.2-2h8.8l0.5-12.6h3.2L132.1,29z"/>
	<path class="st18" d="M140.5,28.7h-1.7l0.5-14.3h3.7L140.5,28.7z M148.9,28.7L146,14.2h2.1v2.5h1.9l0.6,11.9h-1.7L148.9,28.7
		L148.9,28.7z M151.1,16.5h-2.7l-0.1-3.3h3.1L151.1,16.5z M149.1,13.9l-0.1,1.9h1.5l0.2-1.9H149.1z"/>
	<path class="st18" d="M167.4,17.1l-4.4,5.3l4.1,6.4h-1.8l-4-4.3l-3.5,4.3h-2.1l7.7-11.7h-8.5l-0.3-3.4h13.3L167.4,17.1z"/>
	<path class="st18" d="M193.2,14.5h-16.9l-0.5-3.8h17.8L193.2,14.5z M192.5,20.6l-2.8,9.5h-10.5L179,28h9l1.1-7.4h-12.3l-0.4-3.2
		H193L192.5,20.6z"/>
	<path class="st18" d="M215.2,15.1l-10,3.7h9.6l-1.5,11.3h-13.2l-0.9-6.8h9.4l-0.2,4.8h3.1v-6.5L199,21.5l-0.4-2.6L208,15h-9.5
		l-0.4-3.5h17.5L215.2,15.1z M206.2,25.6h-4.1l0.1,2.5h4.1L206.2,25.6z"/>
	<path class="st18" d="M237.8,15.7h-3.1l-0.2,1.7h3.2l-0.4,3.1h-3.1l-0.2,1.9h3.1l-0.3,2.7h-3l-0.5,4.8h-10.9l-0.9-7.5h9.7l-0.1-1.9
		h-9.7l-0.4-3.1h9.9l-0.1-1.7h-10l-0.4-3.6h10.3l-0.1-1.3h7l-0.2,1.3h1L237.8,15.7z M231.1,25.1h-7l0.1,2.8h7L231.1,25.1z"/>
	<path class="st18" d="M256.5,30.2c-0.2-1.4-0.4-2.1-0.7-3.1l-0.7-2.4h-7.8l-0.7,2.4c-0.4,1.1-0.5,2-0.7,3.1h-6.4
		c0.4-0.9,0.7-1.6,1.3-3.5l5.9-17.3c0.5-1.4,0.7-2.3,0.9-3.1h7.2c0.2,0.8,0.4,1.6,0.9,3.1l6,17.3c0.5,1.5,1,2.7,1.3,3.5H256.5z
		 M251.1,11.2l-2.6,8.6h5.2L251.1,11.2z"/>
	<path class="st18" d="M281.3,22.8h-6.5l-0.6,6.8h-2l-0.6-6.8H265l-0.4-3.1h6.8l-0.3-3.2l-5.9,0.5l-0.4-3.8l16.9-2l-0.4,4.4
		l-5.8,0.5l-0.3,3.5h6.7L281.3,22.8z"/>
	<path class="st18" d="M303.4,21.5h-16l-0.5-3.3h16.9L303.4,21.5z"/>
	<path class="st18" d="M325.6,29.3h-15.5l-0.4-2.5l3.7-15h5l-5.8,15.1h10.6l-2.4-7h3.6l1.5,7.1L325.6,29.3z"/>
</g>
<linearGradient id="SVGID_00000005968958775261170810000013549407460268456093_" gradientUnits="userSpaceOnUse" x1="0" y1="1255" x2="330" y2="1255" gradientTransform="matrix(1 0 0 1 0 -1234)">
	<stop  offset="0" style="stop-color:#FFFFFF"/>
	<stop  offset="1" style="stop-color:#606060"/>
</linearGradient>
<rect y="0" style="fill:url(#SVGID_00000005968958775261170810000013549407460268456093_);" width="330" height="42"/>
<rect x="15" y="9.4" class="st0" width="303" height="25"/>
<text transform="matrix(1 0 0 1 15 21.7455)" class="st21 st22">グループ名を記載　サイズは大まかなものでよい</text>
</svg>
