<?xml version="1.0" encoding="utf-8"?>
<!-- Generator: Adobe Illustrator 25.4.1, SVG Export Plug-In . SVG Version: 6.00 Build 0)  -->
<svg version="1.1" id="レイヤー_1" xmlns="http://www.w3.org/2000/svg" xmlns:xlink="http://www.w3.org/1999/xlink" x="0px"
	 y="0px" viewBox="0 0 297 48.9" style="enable-background:new 0 0 297 48.9;" xml:space="preserve">
<style type="text/css">
	.st0{fill:#D3191A;}
	.st1{fill:#D72821;}
</style>
<path class="st0" d="M8.2,31.2c-0.2-4-0.8-8.1-1.8-11.9c0.1,3-3.2,4.6-2.6,7.4c-0.9,1-0.9,0.8-0.5-2.5c-0.3,0.7-0.6,1.5-0.6,2.2
	c0.2-3.5,4-5.6,4-6.8c-1-4.1-1-6.1-0.8-5.7c-0.5-0.8-4.9-1.1-5.2-3.6c0,2.2-0.1-1.7-0.7,1.7c0.1-1.8,1.1-2.8,0.7-1
	c-0.1-1.2,4.6,1.9,4.6,1.1c0.2-1.3,1.3,0.6,2.2-2.2c0.3-0.8,1.6,1.3,2.6,1c-0.6,0.1,4.7,30,4.6,31.6c0.5,1.1,0.3,1.2,0.1-1.5
	c-0.9,1.7-7.6,3.6-7.1,3.4c-0.5,1.3-0.5,0.7-0.6-1c-0.3,1.5,0.3-0.3-0.1-1c0,2.4,1.7,0.9,3.9-1.8c-0.6,1.3-1-1.3-2.9-9
	c0.9-1.2-2.9,3.3-2.8,3.5s-0.9,2.7-1,2.1c0.5,0.2-0.3,0.3-0.5-3.6C4.1,33.8,7.9,29.6,8.2,31.2z M21.3,9.3c0.3-3,3.1,13.6,2.1,10.5
	c0.1,3.3,5.3-1.5,6.2,1.5c-0.8,0.7,0,0.7,1-2.1c-0.6,2.1-0.6,3.6-1.1,4.1c0.3-3.8-4.8,1.2-4.8-0.1c-0.9-1.7,2.4,14,3.1,15.1
	c-0.8-0.8,6.3,0.4,6-2.2c0.8,2.6,0.9-1.1-0.1,3.3c0-1.2,1-1.9-0.5,0c-0.2-1.3-16.9,3.5-16.9,2.7c-0.2-0.3,0.2,2.4,0.3-0.9
	c-1.3-1-1,0,0.6-2c-0.9,0.1,5.4-0.8,5.4,0.9c0.6,0.8-2.1-15.1-2-18c-1.5,1.7-6.5,3.3-5.6,3c-0.5,1.5-0.3,0.7-0.6-1
	c-0.6,1.7,0.5-0.3-0.5-1c0.1,2.6,5.3,0.2,6.5-2.4c-0.8,1.7-2.6-9.5-3.9-11.3c1.4-1.3-5.3-0.2-5.1,0c0.5-0.1-1.1,2.4-1,1.7
	c1,0.1,0,0.3-0.2-3.7c0.2,0,18-2.7,16.8-2.2c1.4,0,0.2-1,1.4-0.4c-0.1,2.4,0.3-0.4-1.5,0.9C27.1,5.9,20.9,7.6,21.3,9.3z"/>
<path class="st0" d="M40.3,25c0-1,1.4-10.5,1.3-11.4c0,0.7,0.3-0.7,0.7,0.3c0.1,0.3,0.3,0.6,0.5-0.1c0,0.6-1.4,11.4-1.4,11.5
	c0-0.9-0.3,0.6-0.6,0.1S40.3,24.9,40.3,25z M46,7.1c1.1-2.8,2.2,1.1,1.8-0.3c0,3.1-1.4,32.1-1.1,35c-0.2,1.1-0.3,1.1-0.5-2
	c-0.1,1.7-3.2,2.7-3.2,3c-0.2-3.7-0.5-0.3-0.5-2c-0.2-1.7,1.4-34,1.5-33C43.9,5.6,44.8,5.4,46,7.1z M48.9,22.2c0-0.7-0.2-7.3-0.2-8
	c0,0.4,0.2-0.7,0.6,0c0.2,0.1,0.5,0.3,0.6,0c0,0.4,0.2,8,0.2,8.1c0-0.6-0.2,0.7-0.5,0.3C49.4,22.3,48.9,22.2,48.9,22.2z M55.3,6.3
	c1.4-1.8,2.6,1.2,1.6,0.8c0,1.3,0.3,2.6,0.9,3.7c-0.9,0.4,11.9,1,12.9-0.9c-0.3,1,0,2.1-0.2,2.7c0.2-1.9-0.1,0.7-0.3-0.2
	c-0.8-1-12.8-1.8-12.2-1.1c-0.7-0.4-0.2,6.3-0.6,4.7c0.5,1.9,0.1-0.1-1.3,2.2c0-0.9-1.7-1.7-2.8-0.6c-0.2-0.8-3.7,9.9-3.7,9.3
	c-0.1,0.1,0.2,2,0.1,0.1c-1.4-0.6-1.4-0.1,0-1.7c-0.9,0.1,3.2-10.2,3.1-9.3c0.5,0.4,0.8-4.5,1-6.3c-0.8,0.6-1.7,0.9-2.6,0.9
	c-0.5,0.8-0.3,0.2-0.5-1c-0.3,1,0.6-0.2-0.2-0.6c0.1,1.6,2.3,1,3.3-0.6c-0.8,0.9-0.1,0.4-1.3-0.7C54,5.7,53.9,5.2,55.3,6.3z
	 M64.2,38.5c0.2-2.6,1-11.9,0.5-16.9c0.1,2.4-1.8-0.3-1.1,1.8c-0.8,0.6-1.3,19.3-0.6,17c-0.5,1.7-0.6,2.8-1.1,3
	c0.2-2.8-3-0.2-2.9-1.2c-0.9-1.2-0.7-1.6-0.3-1.1c-0.6-0.6,0.8-17.6,0.6-19.5c0.3,1.9-1.6-1-2.4,1.9c0-1.1,0.1,13.8-0.7,15.1
	c-0.1-0.7-0.1,0-0.3-0.6c0-0.3-2.5,1.7-2.4-0.4c-1.1-0.4-1.4,0.2-0.3-1.6c-0.7,0.1,0.1-15.8,0-14.6c0.5-0.9,1.5-2.1,2.8-4.1
	c0,1.3,0.6,2.6,1.4,3.4c-0.1,1,2.1,0.8,2-0.3c-0.3,1.5,0.3-3.1-0.5-3.6c0.1,0.4,1.3-1.5,3.2-3.3c0.6,1.2,1.8,4.3,0.9,4.4
	c1-1,0.3,2.1,0.6,2.4c0.5-0.1,1.6,2,1.7,1.7c1-0.8,1-1.1,1.6-3.9c1.4,0.3,3.2,2.6,2.3,4.3c0.7,0-0.9,15.1-0.1,15.4
	c-0.1,1.8,0-0.2-1.4,0.7c-1.1,0.8-2.4,1.3-3.8,1.7c-0.3-0.7-0.1-1.1-0.2-0.7c-0.8-1-0.6-2.9,0.6-2.8C64.1,38.5,63.8,37.2,64.2,38.5z
	"/>
<path class="st1" d="M74.8,31.7c0.2-1.9,0.8-1.3,0.8-2.5c0.6,1.3,0.9,0.3,1.5,2c-0.6,0.3,7.5,0.2,7.9-1c-0.2,0.1,0.2,0.1,0.6,0.2
	c0.7-1.5,1,0.6,1.1,0.7c-0.5-0.7-0.1,10.5,0.1,11c-0.3-0.1-0.1,1-0.5,0c0.2,1-1.3-0.4-1.8,1.1c0-0.6-1.6,1-2.2,1.7
	c-0.1-0.2-0.2-0.4-0.2-0.7c0-0.3,0.3,0.7,0.5-0.6c-0.6-0.2,1.6-1.7,2.3-2.5c-0.5,0-0.5-10.3-0.5-9.6c0.2,0.3-7.4,0.2-7.2-0.9
	c-0.8,2.6-0.8,12.3-0.3,12.6c0.1,0.6,2,0.3,2.3-0.2c-0.2,0.4,0.2-9.4-0.5-9.6c0,0.3,0.6-0.7,1.7-1.7c0.1,0.7,0.9,2.2,0.2,2.1
	c0.7-0.6,0.3,9.1,0.5,9.2c0.3,0-0.5,1.3-0.5,1.1c0.6,0.2-5.9,0.4-6.1-1.1c0,0.1,0.7,0.6,0,0.6C75.4,43.6,74.7,31.1,74.8,31.7z"/>
<path class="st1" d="M107.3,31.2c0.2-1.1-13,0-13.9-1.1c0,1.2,0-0.2,0.7,0.8c-0.9,0.3-1.7-2.2-0.9-3.5c-0.7,0.6-1.5,1-2.3,1.2
	c0.2-1.5-1.4,2.9-1.4,2.5c-0.9-0.4-0.6-0.3-0.2-0.1c-0.8-0.4-0.2,0.3-0.5-0.9c0.5,1,2-3.5,1-2c0-0.6,0.9-9.2,0-8.5
	c-0.1-0.6-1.3-0.3-1.3-0.6c0-0.2,0.3,0.7,0.5-0.6c-1-0.4-0.8-0.1,0.5-0.9c-0.8,0,0.7,0.3,0.7,0.9c0.8-0.6,1.5-1.2,2.1-2.1
	c-0.6,0.7,0.1,1.6,0.8,2.4c-0.1,0.6,0.2,8.9,0.1,8.3c0,1.7,1.4,2.2,0.5,2.2c0.5,0.9,13.7,0.6,14.6-0.4c-0.5,0.6,0.2,1.8-0.8,1.3
	C108.5,30,107.3,30.5,107.3,31.2z M90.4,7.5c0.7-0.1,1.3,0.3,1.4,1.1c0,0.2,0,0.3,0,0.6S91.9,9.8,92,10c0.3,0.1,0.7,0,0.9-0.2
	c0,0.1,0.2,0.4,0.2,0.7c0-0.1-0.1,0.4-0.3,0.3c-1.1-0.1-2.3-0.1-3.4,0c-0.3,0-0.3,0-0.5-0.4c0.1,0.2,0-1-0.1-0.7
	C88.9,8.3,89.6,7.4,90.4,7.5z M97,11.7c0.1-1.8,0.2,2.7-0.1,1c0,1.9,1.3-0.1,1.5,1.7c-0.2-0.3,0.5-1,1.5-2.9c0.7,1,1,2.4,1.1,3.7
	c0.1-2.2,0,13.6,0,12.8c-0.3-0.8-0.2-0.6-0.2,0.1c-0.2-0.4-4,1.1-4.1-0.4c0,1.5-0.2-0.9-0.6,1.1c0-1.1,0.6-1.9,0.3-0.9
	c0-0.8,0.9-0.4,1.7-0.9c0-0.4,0.2-8.9,0.3-12.9c-0.3-0.3-1.5,0.4-1-0.7c-0.3,0-0.3,9.4-0.3,10.4c0.2,0.7,0,0.8,0-0.9
	c-0.6,0.7-1.3,1-2.1,1c0,0.8-0.7,3.1-0.8,2.2c-0.2,1.3-0.1,0.6-0.7,0.1c-0.1,1.3-0.2,0.6,0.2-1.2c-0.2,0.9,0.8-0.3,0.3-1.5
	c0.5-0.8,0.2-13.6,0.3-13.5c0.2-0.1-0.7,1.5-0.7,1.2c0.1,0.2-0.3,0.4-0.6-2.1c0.1,0,0.8,0.6,0.5,0.8c0.8-0.2,1.7-0.4,2.5-0.6
	c0,1.1,0.1-2.4-0.3-1.7c0.1-0.8,1,0,1.6-0.2c0.7-0.4,1.6,0.1,1.4,1.7c-0.3-0.6-0.3-0.1,0,0c0,1.7,2.1,0.3,2.2-0.4
	c0,1,0.1,0.4,0.2,2.6c-0.1,0,0-1.1-0.3,0.1C101,10.7,96.9,10.8,97,11.7z M108,22.8c0.1-0.6,0,0.4-0.5-0.4c0,0.9-1.5-0.1-1.3,0.7
	c-0.3,0.2-0.1,4.8,0.1,3.9c-0.2,0.7-0.3,1.2-0.6,1.3c0.1-1-3.8,0-3.8-0.3c-0.5-0.4-0.5-0.7-0.2-0.6c-0.2-0.4,0.1,0.1,0.2-0.6
	c0.1,0.7,0.9-0.3,1.3,0.8c0.2-1.5,0.2-3,0-4.5c-0.1-0.3-2-0.2-2-0.4c0-0.2-0.1,0.4,0-0.6c-0.3-0.4-0.2-0.2,0.3-0.8
	c-0.2,0,1.8,0.2,1.7,0.7c0.1-1.1,0.2-2.2,0.2-3c-0.5-0.4,0.1-1.1,1.1-1.2c0.7,0.3,1.4,1,1.4,1.6s0.1,2.5-0.2,2.4
	c0,0.7,1.6,0.4,2-0.3C108,21.9,108,22.3,108,22.8L108,22.8z M107.5,10.3c0.1-0.7-2.8,0-3.1-0.7c0,0.7,0.1,1.3,0.3,1.9
	c-0.3,0.4-0.3,0.6-0.2-0.1c-0.2,0.3-2,0.7-2.1,0.7c0.1-0.8-0.7,2.5-0.6,2.2c-0.3-0.1-0.3,0-0.3,0.1c-0.3-0.2-0.2,0.1-0.3-0.7
	c0.1,0.6,0.9-3,0.6-2.2c0-0.3,0.3-3.3,0-2.9c-0.1-1,0.6-1.9,1.4-2c0.8-0.1,1.6,1.3,1.6,1.7c-0.3-0.1-0.3,0.9,0,0.4
	c-0.2,0,2.8,0.2,2.8,0.6c0.3,0.1,0.6,0.3,0.6,0C107.9,9.6,107.8,9.9,107.5,10.3z M104.8,17.3c0.1-1.2,0.1-2.5-0.1-3.6
	c0,0.6-1.8,0-1.6,0.4c-0.5,0.1-0.5-0.1-0.2-0.8c-0.1,0,0,0,0.1,0c0-0.6,2,0,2-0.2c0-0.7,0.3-1.3,0.9-1.3c0.1,0,0.2,0,0.5,0
	c0.6-0.1,1.4,1,1.3,1.7c0.1,1.3,0.1,2.7-0.1,3.9c0,0,0.1,0-0.3,0.3c0-0.2-2-0.1-2-0.2L104.8,17.3z"/>
<path class="st1" d="M111,45.5c0.3-2.1,3.6-21.3,2.6-23.4c0.2,1.3,1-1.8,2.6,0.4c-0.3,0.7,0.6,1.1,1.6-0.3
	c-0.6,1.2,12.3,4.5,11.9,4.8c0.5-3.5,1-1.2,1.7-2.1c0-1,1-0.1,1.4,1.7c-0.7-0.6-2.9,22.6-3.2,20.7c0.5,2.1,0.1-0.4-1,2.4
	c0-1.1-16.5-5.2-17.6-3.9C110.6,44.6,110.8,44.5,111,45.5z M114,45.5c3.2-1.2,10,1.8,12.4,0.6c0.1,1.7,2.5-17.6,3.6-18.7
	c-0.8,0.4-13-2.1-12.3-4C116.7,27.1,113.9,43.9,114,45.5L114,45.5z M124.5,41.8c0.1-1.1,0,2.6-0.5,1.5c0,1.2,1.8,0.9,2.3,2
	c-0.3,0.3,0,0.6,0.3-0.4c-0.5,0.9-0.6,1.5-0.8,1.5c0.1-1.5-2.2-1.2-2.2-1.7c-0.5-0.7-1.8-0.9-1.5-0.6c-0.6-0.3-0.3,0.6-0.5-0.8
	c0.2,1,0.9-6.1,0.5-4.6c-0.1-0.6-0.7-1-1.1-0.8c-0.1,0-0.2,0.1-0.3,0.2c-0.1-0.6-0.1,1.5-0.1,1.1c0,0.1,0.1,1.3,0,0.2
	c-0.6-0.2-2.4,0-1.7-0.8c-0.5,0-2.6,0.6-2.8,1.2c0.1,0.3,0,0,0-1.2c-0.8,0.4-0.6,0.3,0,0.2c-0.1,0.6,2,0.1,2-0.4
	c-0.2,0.8,0.3-1.3-0.2-1.6c0,1-0.9,0.3-0.3-0.7c-0.6,0.6-0.5,1.3-1,0.3c0.7-0.6,0.8-4,0.9-4c0.5-1,0.6-0.7,1.4-0.7
	c1.1,0.2,1,1.1,0.8,0.4c0.2,0.1,5.2,1.5,4.6,1.7c0.8-0.7,0.8-1.7,2-1.3c0.7,0.9,1.5,0.7,0.7,2c0.2,1.5,0.2,2.9,0,4.4
	c0,0,0.1,0-0.2,0.3c-0.5-0.3-1.6-1.5-1-1.3c0,0.6,0,1-0.1,1.6c-0.2,0.7,1.4-0.1,1.5,1.2c0-0.2,0.5-0.8,0.3,0.2c0-0.3,0,0.6-0.6,0.4
	C126.6,41.1,124.4,41.1,124.5,41.8L124.5,41.8z M119.4,42.5c0-0.3-0.1,1.7-0.2,1.3c0,0.6-0.2,0.3-0.2,0.7c0,0.3-2.1-0.3-2-0.7
	c-0.2,0.1-0.3,0.1-0.3-0.1c0-0.2,0.2-1.7,0.2-1.8c0-0.8,0.6-1.6,1.3-1.6c0.1,0,0.2,0,0.3,0C119,40.3,119.5,41.3,119.4,42.5
	L119.4,42.5z M128,32.7c0.1-0.3,0.1,0.3-0.6-0.2c0.1,0.6-10.7-2.1-10.2-1.6c-0.8,0.1-0.6-0.1,0-1c-0.3,0.1,0,0.1,0,0.2
	c0.1-0.7,4,0.8,4.1,0.6c-0.5-0.3,0.1-2.5,0.5-2.2c-0.3-0.1-3.7-0.3-3.8-0.8c0,0.4-0.1-0.4-0.7,0c0-0.6,0.8-0.9,0.3-0.4
	c-0.1-0.2,3.8,0.6,3.8,0.4s0.5,0.1,0.5-0.3c-0.5-1.1,0.3-1.5,1.7-1.7c0.6,0.7,0.8,1.6,0.7,2.5c0.2,0.1,0.3,0.4,0.3-0.1
	c-0.8,0.3,2.9,1.1,3.3,1c0.1,0.3,0.5,0.4,0.3,0.4c-0.2,0.6,0,0.4-0.8,0.3c0,0.4-3.6-0.4-2.9-0.9c-0.5,0.3-0.3,2.9-1,2.6
	c1.5,0,3,0.1,4.5,0.4C128.6,31.7,127.9,32.1,128,32.7L128,32.7z M124.1,34.8c0.1-0.2-4.1-0.8-4.3-1.1c-0.1,0.9-0.1,1.9-0.1,2.8
	c1.4,0.4,2.9,0.6,4.4,0.6C124,36.4,124,35.6,124.1,34.8z"/>
<path class="st1" d="M137.5,34.7c0.1-1.8,0.2-14-0.1-15.8c0,1.9-1.4-0.1-1.1,1.7c-0.5,0.4-0.5,0-0.2-2c-0.1,0.6-0.1,1.1,0.1,1.6
	c0.1-2.2,1.5,0,1.5-0.8c-0.2-1-0.1-5.2,0.1-4.6c-0.2-1.5,0.6-0.6,1.3-2.1c0.9,1.6,1.5,0,1.1,3.3c0.2,1.2,0.2,2.5,0,3.8
	c0-0.8,1.3-0.4,1.3-0.9c0.2-0.2,0.6,1.7,0.6,0.2c-0.3-0.1-0.5,0.9-0.3-0.3c-0.2,0-1.5,0.6-1.5,1.5c0.1,0.4,0.2,13.6,0.2,11.9
	c-0.5,1,1,0.8,1.3,0.7c0.1,0.8,0.5,0.6,0.5,0c-0.1,1.3,0,0.7-0.5,0.3c0.1,0.4-0.2,1-0.6,1s-0.8-0.2-0.9-0.7c0-0.2,0-0.3,0-0.6
	c-0.2,0.9-0.1,2.5-0.5,1.3c0.3-0.8,0.1-1,0.1-0.9c0.2-0.1-3.9,2.5-3.8,2.2c0.1,0.3-0.5,0.6-0.6-2c0.1,0,0.6,0.6,0.3,0.8
	C136.3,34.2,137.4,33.7,137.5,34.7z M146.3,15.6c0.2-1.9,0.3,1.3-0.1,1.5c0.1,2.1,1.6-0.4,2.1,1.5c-0.6,0.6-0.3-3.8,0.2-5.8
	c-0.3,0.2,0.3,0.2,0.9,0.4c0.9-2.5,1.4,0.8,1.5,0.8c-0.5-1-0.2,2.6,0.1,3.3c-0.5-0.6,1.4,1,1.1-0.7c0.3,0.8,0.8-2.5,0.9,0
	c0.7-1,2-0.9,1.4,1.2c-0.1-0.9,0.1,13.6,0.1,13.1c0,0,0.2,2,0.1,0.2c-0.7-0.3-5.2,0.4-4.5-0.8c-0.7,0.1-0.8,0.3-0.8,1.1
	c0.3,0.2,0.6,0,0.8-1.9c-0.8,1.1,0.2,1.3,1.8,1.1c-0.1,0.7,0.1-9.3,0-13.2c-0.2,1.2-1.3,0.4-1.8,0c0,1.7,0.1,10.5,0.8,8.9
	c-0.5,1.2-0.2,3.1-1.1,1.9c0.8-0.9-1.6-1.1-1.5-1c0.2-0.1-0.7,1.5-0.6,1c0.6,0.2,0-8.5-0.3-11.1c0.2,0.2-0.5,1.3-1.1,1.7
	c0.6,5.9-0.1,15.2,0.5,15.6c2.8,1.3,8.5-0.8,7.6,0c0.3,0.2,1.1,2,0.8,2.1c0-0.3,0.1-0.2-0.2,0.4c-0.6-0.7-11.1-2.1-10.6-1.9
	c-0.1,1.8-0.3,0.1-0.2-1c-0.2,1.1-0.5-15.9-0.2-13.8c-0.2-0.3-0.9-1.6-1-0.2c-0.1-1-0.3,0.1-0.7-0.4c0-0.7,0.6-1.7,0.1-1.8
	c-0.1,0,1.5-0.8,1.3,1.2c-0.1-1.5,0.3-4,0-5.3c-0.1,0.9,0.8-1,1.4-0.7C145.7,13.4,146.2,13.6,146.3,15.6z"/>
<path class="st1" d="M161.2,22.3c0.2-3.1,0.6-0.8-0.1-3.7c0.1,3,4.1-3.7,4.9-1c-1,0.7-0.6-10.2,0.3-13.1c-0.6,0.1,0.3,0,1,0.4
	c1.3-3.5,1.8,1.2,2,1.3c-0.8-1.6-0.3,0.2,0.2,1.2c-0.7-0.8,9.3,1.8,9-0.7c0.6,1.2,1.3-3.3,1,0.3c0.9-1.5,2.8-1.1,1.7,2
	c-0.2-1.2,0.2,17.9,0.2,17.2c0,0,0.5,2.9,0.5,0.3c-1-0.6-3.7,0.7-2.4-1.1c-0.8,0.1-12.1,10.8-12.1,12.2c0.2,0.9,0.1,0.6,0.2-2.4
	c-1.5,1.2-1.4,1.2-0.5,0.8c-0.2,1.2,11.4-9.2,11.3-10.4c-0.5,1.8,0.3-17.3-0.8-17.8c0.1,2.4-9.1,1.3-7.9-1
	c-0.7,1.5-0.2,11.8-1.3,10.1c1.3-0.9,0.5-1,0.5-0.8c-0.9,0.9-2,1.6-3,2c0.9,0.4-4.1,4.7-4.6,0.9C161.4,19.7,161,21.1,161.2,22.3z
	 M181.9,1.6c0.3,1.2,0.6,2.4,0.8,3.6c0,0.8,0,0.7-0.2,1.1c-0.2,0.4-0.5,0-0.5-0.8c0,0.2-0.8-3.7-0.8-3.6c0-0.9,0-0.7,0.3-0.9
	C181.8,0.7,181.9,1,181.9,1.6z M185.1,5.6c0-0.1,0,0.7-0.3,0.3c-0.2,0.6-0.5-0.1-0.5,0c-0.3-1.5-0.7-2.9-0.8-4.5
	c-0.1,0,0-0.2,0.2-0.2c0.2-0.7,0.5,0,0.6,0.2C184.4,1.7,185.1,5.4,185.1,5.6z"/>
<path class="st1" d="M193.6,41.8c0.1-2.6-3.6,6.6-3.8,4c-0.1,3.1-0.3,0-0.2,2.4c-0.6,0.4-0.3-0.2,0-3.1c-0.2,1.5,3.6-4.1,3.4-3.8
	c0.1-3.3,0-21.7,0-23c-0.3-2.9,0.7-4,1.8-3.1c0.7-0.7,1.7,2.9,1.6,2.1c0.1,2.4,0.1,20.9-0.2,24.3c0-1,0.2-1.6-0.5,0
	C195.9,40.3,193.5,40.4,193.6,41.8z M211.4,37.1c0.3-2.6,0.5,0.6-0.2-1.9c0,3-7.6,8-7,10.7c-0.6,0.7-0.3,2,0.2-0.9
	c-0.3,1.9-0.5,3.3-0.8,3.7c0.1-3.5-2.6,0-2.5-1.2c-0.7-1.5-0.6-1.8-0.2-1.1c-0.3-0.8,0-28.8-0.2-31.2c0.2,0.9,1-3.8,1.4-0.2
	c0.9-1.3,2.3-1.1,1.7,2c-0.1-1.2,0.1,26.7,0.1,26c0-0.3,7.6-5.5,7.6-8.1C211,34,211.2,35.2,211.4,37.1L211.4,37.1z"/>
<path class="st1" d="M216.2,28.7c0.3,0,21.5,0,20.6,0c0.5,0.2,1,0.4,1.5,0.7c-1,0.3-0.7,0.7,0,0.6c-0.7,0-21.4,0-21.6,0.1
	c0-0.1-0.2-0.3-0.2-0.7C215.7,28.9,215.8,28.7,216.2,28.7z"/>
<path class="st1" d="M246.9,7.3c0.2-3.1,0.7-0.8,0.1-3.5c0.1,2.9,14.7-0.2,15.5,2.4c-0.7-0.6,0.5-1.7,2.1-4.6c0.7,1.7,1,3.7,1,5.7
	c0.2-3.5,0.1,18.7,0.2,17.5c-0.7-1.2-0.5-0.9-0.2,0c-0.6-0.8-2.6,1.8-3-0.7c0.5,2.4-11.1,10.4-12.1,14c-0.2-1.2,0.5-2.4-0.6-0.9
	c-0.3-1.6,0.1-1.3,0.3-2.4c0-0.3,12.1-9.3,12.2-11.8c-0.9-0.6-0.9-16.9,0.2-18.7c-0.8,0.1-15.3,0.8-15.3,2.2
	C247.5,7.7,246.6,6.2,246.9,7.3z M269.9,4.4c0,1.3-0.7,2.4-1.6,2.4c-0.1,0-0.2,0-0.3,0c-1,0.6-1.8-1.3-1.7-2.5
	c-0.2-1.5,0.7-2.8,2-3.4C269.3,1.4,270.1,2.8,269.9,4.4z M269.1,4.3c0-1.2-0.5-1.7-1.1-1.9c-0.6,0.3-1.1,0.7-1,1.9
	c-0.1,0.7,0.2,1.3,0.7,1.5c0.1,0,0.3,0,0.5,0C268.7,5.9,269.1,5.1,269.1,4.3z"/>
<path class="st1" d="M282.5,11.3c0.1-2.6,0.2,28.8-0.1,26.2c0,3.3-0.1,0.4,0,2.9c-0.3,0.7-2.9,0.4-2.5-2.4c-0.5,1.5-0.6,2.4-0.7,2.4
	c0.1-3.3,0-28.1,0-29.4c-0.3-1.5-4-1.5-3.8-0.6c-0.5-0.7-0.3,1.5-0.6-1.2c0.2,1.9,0.3-1.7,0.1,1.8c0-1.3,4.4-2.2,3.9-0.7
	c0-2.4,0.9-2.8,1.7-3.6C281.5,6.2,282.4,8.5,282.5,11.3z"/>
<path class="st1" d="M295.2,17.6c0.1-2.6,0.2,28.8-0.1,26.2c0,3.3-0.1,0.4,0,2.9c-0.3,0.7-2.9,0.4-2.5-2.4c-0.5,1.5-0.6,2.4-0.7,2.4
	c0.1-3.3,0-28.1,0-29.4c-0.3-1.5-4-1.5-3.8-0.6c-0.5-0.7-0.5,1.5-0.6-1.2c0.1,1.9,0.3-1.7,0.1,1.8c0-1.3,4.4-2.2,3.9-0.7
	c0-2.4,0.9-2.8,1.7-3.6C294.3,12.6,295.1,14.8,295.2,17.6z"/>
</svg>
